<svg width="47" height="43" viewBox="0 0 47 43" fill="none" xmlns="http://www.w3.org/2000/svg">
<mask id="mask0_55244_1709" style="mask-type:alpha" maskUnits="userSpaceOnUse" x="0" y="0" width="47" height="43">
<rect width="47" height="43" fill="#D9D9D9"/>
</mask>
<g mask="url(#mask0_55244_1709)">
<path d="M29.9604 40.3088L23.6043 34.5175L26.7824 31.6475L29.9604 34.5175L37.8219 27.2912L41 30.1612L29.9604 40.3088ZM12.2302 42C11.5983 42 11.0686 41.8035 10.6412 41.4106C10.2137 41.0177 10 40.5308 10 39.95V7.15C10 6.56917 10.2137 6.08229 10.6412 5.68938C11.0686 5.29646 11.5983 5.1 12.2302 5.1H16.6906V1H25.6115V5.1H30.0719C30.7038 5.1 31.2335 5.29646 31.661 5.68938C32.0884 6.08229 32.3022 6.56917 32.3022 7.15V21.5C31.5216 21.5 30.7596 21.5598 30.0162 21.6794C29.2728 21.799 28.548 21.9783 27.8417 22.2175V9.2H14.4604V37.9H19.7014C19.9988 38.6858 20.3612 39.4204 20.7887 40.1038C21.2161 40.7871 21.7272 41.4192 22.3219 42H12.2302Z" fill="#4F378B"/>
</g>
</svg>
