<svg width="43" height="43" viewBox="0 0 43 43" fill="none" xmlns="http://www.w3.org/2000/svg">
<path fill-rule="evenodd" clip-rule="evenodd" d="M7.16675 37.6251V5.37508C7.16675 3.40425 8.77925 1.80966 10.7501 1.80966L28.6667 1.79175C30.6376 1.79175 32.2501 3.40425 32.2501 5.37508V12.5417H28.6667V10.7501H10.7501V32.2501H28.6667V30.4584H32.2501V37.6251C32.2501 39.5959 30.6376 41.2084 28.6667 41.2084H10.7501C8.77925 41.2084 7.16675 39.5959 7.16675 37.6251ZM28.6667 37.6251V35.8334H10.7501V37.6251H28.6667ZM10.7501 5.37508H28.6667V7.16675H10.7501V5.37508ZM37.9834 17.1105L35.4751 14.6022L26.4272 23.6501L22.2167 19.4397L19.7084 21.948L26.4272 28.6667L37.9834 17.1105Z" fill="#4F378B"/>
</svg>
