<svg width="37" height="37" viewBox="0 0 37 37" fill="none" xmlns="http://www.w3.org/2000/svg">
<path d="M0.583328 14.9167C0.583328 11.9306 1.24774 9.19082 2.57656 6.69742C3.90538 4.20402 5.68958 2.13614 7.92916 0.493774L10.0344 3.36044C8.2427 4.67433 6.81683 6.33162 5.75677 8.33232C4.6967 10.333 4.16666 12.5278 4.16666 14.9167H0.583328ZM32.8333 14.9167C32.8333 12.5278 32.3033 10.333 31.2432 8.33232C30.1832 6.33162 28.7573 4.67433 26.9656 3.36044L29.0708 0.493774C31.3104 2.13614 33.0946 4.20402 34.4234 6.69742C35.7523 9.19082 36.4167 11.9306 36.4167 14.9167H32.8333ZM4.16666 31.0417V27.4584H7.74999V14.9167C7.74999 12.4382 8.49652 10.236 9.98958 8.30992C11.4826 6.38388 13.4236 5.12225 15.8125 4.52502V3.27086C15.8125 2.52433 16.0738 1.88978 16.5963 1.36721C17.1189 0.844643 17.7535 0.583358 18.5 0.583358C19.2465 0.583358 19.8811 0.844643 20.4036 1.36721C20.9262 1.88978 21.1875 2.52433 21.1875 3.27086V4.52502C23.5764 5.12225 25.5174 6.38388 27.0104 8.30992C28.5035 10.236 29.25 12.4382 29.25 14.9167V27.4584H32.8333V31.0417H4.16666ZM18.5 36.4167C17.5146 36.4167 16.671 36.0658 15.9693 35.3641C15.2675 34.6624 14.9167 33.8188 14.9167 32.8334H22.0833C22.0833 33.8188 21.7325 34.6624 21.0307 35.3641C20.329 36.0658 19.4854 36.4167 18.5 36.4167ZM11.3333 27.4584H25.6667V14.9167C25.6667 12.9459 24.9649 11.2587 23.5615 9.85523C22.158 8.45176 20.4708 7.75003 18.5 7.75003C16.5292 7.75003 14.842 8.45176 13.4385 9.85523C12.0351 11.2587 11.3333 12.9459 11.3333 14.9167V27.4584Z" fill="#4F378B"/>
</svg>
