<svg width="37" height="37" viewBox="0 0 37 37" fill="none" xmlns="http://www.w3.org/2000/svg">
<path d="M18.5 4.16671V0.583374H36.4167V4.16671H18.5ZM18.5 11.3334V7.75004H36.4167V11.3334H18.5ZM18.5 18.5V14.9167H36.4167V18.5H18.5ZM30.9521 36.4167C27.2194 36.4167 23.5316 35.603 19.8885 33.9756C16.2455 32.3481 12.9309 30.0414 9.94479 27.0553C6.95868 24.0691 4.6519 20.7546 3.02447 17.1115C1.39704 13.4684 0.583328 9.7806 0.583328 6.04796C0.583328 5.51046 0.762495 5.06254 1.12083 4.70421C1.47916 4.34587 1.92708 4.16671 2.46458 4.16671H9.72083C10.1389 4.16671 10.5121 4.30855 10.8406 4.59223C11.1691 4.87591 11.3632 5.21185 11.4229 5.60004L12.5875 11.8709C12.6472 12.3487 12.6323 12.7518 12.5427 13.0802C12.4531 13.4087 12.2889 13.6924 12.05 13.9313L7.7052 18.3209C8.30243 19.4257 9.01163 20.4933 9.83281 21.5235C10.654 22.5537 11.5573 23.5466 12.5427 24.5021C13.4684 25.4278 14.4389 26.2863 15.4542 27.0776C16.4694 27.869 17.5444 28.5931 18.6792 29.25L22.8896 25.0396C23.1583 24.7709 23.5092 24.5693 23.9422 24.4349C24.3752 24.3006 24.8007 24.2632 25.2187 24.323L31.4 25.5771C31.8181 25.6966 32.1615 25.9131 32.4302 26.2266C32.699 26.5401 32.8333 26.891 32.8333 27.2792V34.5355C32.8333 35.073 32.6542 35.5209 32.2958 35.8792C31.9375 36.2375 31.4896 36.4167 30.9521 36.4167ZM6.00312 14.9167L8.95937 11.9605L8.19791 7.75004H4.21145C4.36076 8.97435 4.56979 10.1837 4.83854 11.3782C5.10729 12.5726 5.49548 13.7521 6.00312 14.9167ZM22.0385 30.9521C23.2031 31.4598 24.3901 31.8629 25.5995 32.1615C26.8088 32.4601 28.0257 32.6542 29.25 32.7438V28.8021L25.0396 27.9511L22.0385 30.9521Z" fill="#4F378B"/>
</svg>
