<svg width="43" height="43" viewBox="0 0 43 43" fill="none" xmlns="http://www.w3.org/2000/svg">
<mask id="mask0_55245_1743" style="mask-type:alpha" maskUnits="userSpaceOnUse" x="0" y="0" width="43" height="43">
<rect width="43" height="43" fill="#4F378B"/>
</mask>
<g mask="url(#mask0_55245_1743)">
<path d="M22 26.8947C20.2143 26.8947 18.6964 26.2654 17.4464 25.0066C16.1964 23.7478 15.5714 22.2193 15.5714 20.4211V7.47368C15.5714 5.67544 16.1964 4.14693 17.4464 2.88816C18.6964 1.62939 20.2143 1 22 1C23.7857 1 25.3036 1.62939 26.5536 2.88816C27.8036 4.14693 28.4286 5.67544 28.4286 7.47368V20.4211C28.4286 22.2193 27.8036 23.7478 26.5536 25.0066C25.3036 26.2654 23.7857 26.8947 22 26.8947ZM19.8571 42V35.3645C16.1429 34.861 13.0714 33.1886 10.6429 30.3474C8.21429 27.5061 7 24.1974 7 20.4211H11.2857C11.2857 23.4061 12.3304 25.9507 14.4196 28.0546C16.5089 30.1586 19.0357 31.2105 22 31.2105C24.9643 31.2105 27.4911 30.1586 29.5804 28.0546C31.6696 25.9507 32.7143 23.4061 32.7143 20.4211H37C37 24.1974 35.7857 27.5061 33.3571 30.3474C30.9286 33.1886 27.8571 34.861 24.1429 35.3645V42H19.8571ZM22 22.5789C22.6071 22.5789 23.1161 22.3722 23.5268 21.9586C23.9375 21.545 24.1429 21.0325 24.1429 20.4211V7.47368C24.1429 6.86228 23.9375 6.34978 23.5268 5.93618C23.1161 5.52259 22.6071 5.31579 22 5.31579C21.3929 5.31579 20.8839 5.52259 20.4732 5.93618C20.0625 6.34978 19.8571 6.86228 19.8571 7.47368V20.4211C19.8571 21.0325 20.0625 21.545 20.4732 21.9586C20.8839 22.3722 21.3929 22.5789 22 22.5789Z" fill="#4F378B"/>
</g>
</svg>
